<svg id="insta" xmlns="http://www.w3.org/2000/svg" width="28.194" height="28.128" viewBox="0 0 28.194 28.128">
  <g id="_001-instagram" data-name="001-instagram">
    <path id="Path_14847" data-name="Path 14847" d="M19.384,0H8.811A8.8,8.8,0,0,0,0,8.79V19.338a8.8,8.8,0,0,0,8.811,8.79H19.384a8.8,8.8,0,0,0,8.811-8.79V8.79A8.8,8.8,0,0,0,19.384,0Zm6.168,19.338a6.167,6.167,0,0,1-6.168,6.153H8.811a6.167,6.167,0,0,1-6.168-6.153V8.79A6.167,6.167,0,0,1,8.811,2.637H19.384A6.167,6.167,0,0,1,25.551,8.79Z" fill="#fff"/>
    <path id="Path_14848" data-name="Path 14848" d="M135.049,128a7.032,7.032,0,1,0,7.049,7.032A7.041,7.041,0,0,0,135.049,128Zm0,11.427a4.4,4.4,0,1,1,4.405-4.395A4.406,4.406,0,0,1,135.049,139.427Z" transform="translate(-120.951 -120.968)" fill="#fff"/>
    <ellipse id="Ellipse_91" data-name="Ellipse 91" cx="0.939" cy="0.937" rx="0.939" ry="0.937" transform="translate(20.735 5.568)" fill="#fff"/>
  </g>
</svg>
