<svg xmlns="http://www.w3.org/2000/svg" width="67" height="67" viewBox="0 0 67 67">
  <g id="Group_3074" data-name="Group 3074" transform="translate(-1815 -38)">
    <g id="Group_3072" data-name="Group 3072" transform="translate(-1 3)">
      <circle id="Ellipse_52" data-name="Ellipse 52" cx="33.5" cy="33.5" r="33.5" transform="translate(1816 35)" fill="#feb31c"/>
      <g id="share" transform="translate(1835.377 49.687)">
        <g id="share-alt" transform="translate(0)">
          <path id="Path_8282" data-name="Path 8282" d="M53.515,13.074a5.215,5.215,0,0,0-3.735,1.494L36.519,6.91A3.178,3.178,0,0,0,36.706,5.6,5.6,5.6,0,1,0,25.5,5.6a5.5,5.5,0,0,0,5.6,5.6,5.215,5.215,0,0,0,3.735-1.494L48.1,17.37a3.178,3.178,0,0,0-.187,1.307,3.178,3.178,0,0,0,.187,1.307L34.838,27.829A5.215,5.215,0,0,0,31.1,26.334a5.416,5.416,0,1,0,5.416,5.416,3.646,3.646,0,0,0-.187-1.307L49.593,22.6a5.215,5.215,0,0,0,3.735,1.494,5.5,5.5,0,0,0,5.6-5.6A5.2,5.2,0,0,0,53.515,13.074Z" transform="translate(-25.5)" fill="#e33a3a"/>
        </g>
      </g>
    </g>
  </g>
</svg>
