<svg xmlns="http://www.w3.org/2000/svg" width="108.771" height="22.169" viewBox="0 0 108.771 22.169">
    <defs>
        <style>
            .cls-1{fill:#fff}
        </style>
    </defs>
    <g id="logo" transform="translate(-114 -231.944)">
        <g id="logo-2" data-name="logo" transform="translate(114 231.944)">
            <path id="typography" d="M12 13.858V4h1.144v9.858zm8.671-.012v-1.021a3.9 3.9 0 0 1-2.855 1.241 3.929 3.929 0 1 1 0-7.858 3.92 3.92 0 0 1 2.855 1.16v-.942h1.144v7.421zm-5.7-3.711a3.018 3.018 0 0 0 2.843 2.8 3.029 3.029 0 0 0 2.855-2.8 3.028 3.028 0 0 0-2.855-2.8 3.018 3.018 0 0 0-2.841 2.801zm14.6-5.284h1.144V6.6h1.457v1.124h-1.458v3.756a1.356 1.356 0 0 0 1.34 1.367v1.126a2.482 2.482 0 0 1-2.484-2.493V4.852zm43.191 9.007v-3.722a2.924 2.924 0 0 0-.37-1.389 2.891 2.891 0 0 0-4.97 0 3.057 3.057 0 0 0-.358 1.389v3.722h-1.145V6.426h1.144v.816a3.837 3.837 0 0 1 .89-.621 4.212 4.212 0 0 1 1.953-.414c1.768 0 4 .758 4 3.929v3.722zm8.83 0v-1.022a3.9 3.9 0 0 1-2.855 1.23 3.945 3.945 0 0 1-3.987-3.883 4.027 4.027 0 0 1 6.842-2.746V4h1.145v9.858zm-5.7-3.676a2.85 2.85 0 0 0 5.7 0 2.85 2.85 0 0 0-5.7 0zm12.159 3.676V6.483H89.2v7.375zm0-8.351V4.152H89.2v1.355zm3.456 4.629v3.722h-1.155V6.426h1.156v.816a4.12 4.12 0 0 1 .878-.621 4.33 4.33 0 0 1 1.814-.414v1.138a2.956 2.956 0 0 0-1.226.3 2.592 2.592 0 0 0-1.467 2.491zm-5.762 2.819a.745.745 0 0 1-1.49 0 .745.745 0 0 1 1.491 0zm-39.765-.869a2.452 2.452 0 0 1-2.2.854 2.743 2.743 0 0 1-2.739-2.24h6.692a3.869 3.869 0 0 0-3.953-4.492 3.929 3.929 0 1 0 0 7.858 3.787 3.787 0 0 0 3.32-1.433zm-2.2-4.753a3.085 3.085 0 0 1 2.8 2.24h-5.572a3.031 3.031 0 0 1 2.775-2.24zm8.611 5.607a2.8 2.8 0 1 1 0-5.607 2.569 2.569 0 0 1 2.437 1.2l1.045-.512a3.793 3.793 0 0 0-3.482-1.818 3.969 3.969 0 0 0-3.987 3.929 3.969 3.969 0 0 0 3.987 3.929 3.793 3.793 0 0 0 3.482-1.818l-1.045-.512a2.57 2.57 0 0 1-2.435 1.208zM25.606 6.207a2.844 2.844 0 0 1 2.61 1.363l-.532.261-.384.191-.129.06a1.508 1.508 0 0 0-.8-.624 2.26 2.26 0 0 0-.763-.127 2.588 2.588 0 0 0-.774.127 1.024 1.024 0 0 0-.821.953 1.074 1.074 0 0 0 .821 1.034 2.263 2.263 0 0 0 .774.127 2.742 2.742 0 0 1 2.543 1.149 2.412 2.412 0 0 1 .37 1.137 2.317 2.317 0 0 1-.37 1.091 2.758 2.758 0 0 1-2.543 1.115 3.027 3.027 0 0 1-2.779-1.451l1.041-.513a1.582 1.582 0 0 0 .868.709 2.869 2.869 0 0 0 .867.127 2.717 2.717 0 0 0 .844-.127c.4-.127.925-.379.925-.953a1.142 1.142 0 0 0-.925-1.023 2.649 2.649 0 0 0-.844-.138 2.548 2.548 0 0 1-2.4-1.137 2.619 2.619 0 0 1-.335-1.149 2.471 2.471 0 0 1 .335-1.1 2.549 2.549 0 0 1 2.4-1.1m10.271 0a2.844 2.844 0 0 1 2.61 1.363l-.533.261-.384.191-.129.06a1.509 1.509 0 0 0-.8-.624 2.263 2.263 0 0 0-.763-.127 2.593 2.593 0 0 0-.775.127 1.023 1.023 0 0 0-.82.953 1.074 1.074 0 0 0 .82 1.034 2.267 2.267 0 0 0 .775.127 2.742 2.742 0 0 1 2.543 1.149 2.412 2.412 0 0 1 .37 1.137 2.317 2.317 0 0 1-.37 1.091 2.758 2.758 0 0 1-2.543 1.115 3.028 3.028 0 0 1-2.78-1.451l1.045-.512a1.582 1.582 0 0 0 .868.709 2.869 2.869 0 0 0 .867.127 2.717 2.717 0 0 0 .844-.127c.4-.127.924-.379.924-.953a1.143 1.143 0 0 0-.924-1.023 2.65 2.65 0 0 0-.844-.138 2.55 2.55 0 0 1-2.4-1.137 2.619 2.619 0 0 1-.335-1.149 2.471 2.471 0 0 1 .335-1.1 2.549 2.549 0 0 1 2.4-1.1" class="cls-1" transform="translate(-11.478 -3.97)"/>
            <path id="Persian" d="M14.937 260.649a.51.51 0 1 0 .519.51.515.515 0 0 0-.519-.51zm40.339.019a.51.51 0 1 0 .519.51.515.515 0 0 0-.519-.51zm1.425 0a.51.51 0 1 0 .519.51.515.515 0 0 0-.52-.51zm-10.42 1.62v2.333a.675.675 0 0 1-.68.668h-.641a.329.329 0 0 1-.332-.326v-2.419H43.9v2.077a.675.675 0 0 1-.681.668h-.642a.33.33 0 0 1-.332-.326v-2.675h-.728v2.333a.675.675 0 0 1-.681.668h-6.443a.33.33 0 0 1-.332-.326v-1.6a1.742 1.742 0 0 0-1.756-1.71h-.114l1.425-1.083-.446-.57-2.17 1.648v.715h1.3a1.02 1.02 0 0 1 1.029 1.009v1.249a.675.675 0 0 1-.68.668H15.634a.329.329 0 0 1-.332-.326v-2.675h-.728v2.336a.674.674 0 0 1-.68.665H7.9a.329.329 0 0 1-.332-.326v-1.72a1.525 1.525 0 0 0-.474-1.125 1.591 1.591 0 0 0-1.151-.47 2.117 2.117 0 0 0-1.227.318l-.183.127-.115.084.421.569s.152-.1.3-.2a1.444 1.444 0 0 1 .8-.181.888.888 0 0 1 .636.256.841.841 0 0 1 .261.62v1.367a.707.707 0 0 1-.146.5.95.95 0 0 1-.662.176H4V266h2.036a1.789 1.789 0 0 0 1.026-.264c.027-.019.051-.04.076-.06A1.066 1.066 0 0 0 7.9 266h5.988a1.415 1.415 0 0 0 .942-.358 1.065 1.065 0 0 0 .8.358h17.023a1.416 1.416 0 0 0 .942-.358 1.064 1.064 0 0 0 .8.358h6.443a1.416 1.416 0 0 0 .943-.358 1.064 1.064 0 0 0 .8.358h.642a1.415 1.415 0 0 0 .942-.358 1.066 1.066 0 0 0 .8.358h.635a1.4 1.4 0 0 0 1.409-1.383v-2.333zm38.958-2.019v4.352a.675.675 0 0 1-.68.668H73.09a.329.329 0 0 1-.332-.326v-2.675h-.729v2.333a.675.675 0 0 1-.68.668h-.642a.329.329 0 0 1-.332-.326v-2.419h-.728v2.077a.675.675 0 0 1-.681.668h-.642a.33.33 0 0 1-.332-.326v-2.675h-.728v2.333a.675.675 0 0 1-.681.668h-4.618a.329.329 0 0 1-.332-.326v-2.675H60.9v2.333a.675.675 0 0 1-.681.668H50.63a1.08 1.08 0 0 1-.777-.319 1.045 1.045 0 0 1-.326-.771 1.275 1.275 0 0 1 .529-1.121l.289-.2-.41-.578-.173.109-.127.087a1.944 1.944 0 0 0-.84 1.707 1.718 1.718 0 0 0 .54 1.273 1.8 1.8 0 0 0 1.3.529h9.594a1.416 1.416 0 0 0 .943-.358 1.064 1.064 0 0 0 .8.358h4.619a1.416 1.416 0 0 0 .943-.358 1.064 1.064 0 0 0 .8.358h.642a1.415 1.415 0 0 0 .942-.358 1.066 1.066 0 0 0 .8.358h.642a1.415 1.415 0 0 0 .942-.358 1.065 1.065 0 0 0 .8.358h11.457a1.4 1.4 0 0 0 1.409-1.383v-4.352z" class="cls-1" transform="translate(-4 -243.835)"/>
            <path id="clock" d="M704.686 37.025l-1.193.559a2.845 2.845 0 0 1-2.806 2.282 2.8 2.8 0 1 1 0-5.607 2.871 2.871 0 0 1 2.205 1.024l1.029-.5a4.121 4.121 0 0 0-.75-.773.111.111 0 0 0 .012-.019l.247-.49a.137.137 0 0 0-.061-.185l-.986-.492a.139.139 0 0 0-.185.061l-.234.465a3.948 3.948 0 0 0-1.276-.213 4 4 0 0 0-1.278.209l-.232-.459a.138.138 0 0 0-.185-.061l-.987.492a.138.138 0 0 0-.061.184l.248.49.007.01a3.9 3.9 0 0 0-1.5 3.063 3.994 3.994 0 0 0 7.987 0l-.001-.04z" class="cls-1" transform="translate(-651.494 -30.897)"/>
            <path id="plane" d="M744.778 79.18a.745.745 0 0 0-.626-.166 5.8 5.8 0 0 0-1.228.568c-.5.27-1 .575-1.1.65l-.551-.426a.424.424 0 0 0-.388-.046l-.142.074a.061.061 0 0 0-.022.095l.021.024.959.956a.277.277 0 0 0 .269.051l1.9-.873c.158-.067.54-.262.692-.342.225-.119.518-.345.216-.565z" class="cls-1" transform="translate(-692.624 -74.073)"/>
            <path id="windows" d="M769.378 87.749a.134.134 0 1 0-.135.132.133.133 0 0 0 .135-.132zm.49-.243a.134.134 0 1 0-.135.132.134.134 0 0 0 .135-.132zm.49-.242a.134.134 0 1 0-.135.132.133.133 0 0 0 .135-.132z" class="cls-1" transform="translate(-719.178 -81.674)"/>
            <path id="Exclusion_1" d="M10.687 22.169a10.73 10.73 0 0 1-9.845-6.511 10.539 10.539 0 0 1 .25-8.8 10.829 10.829 0 0 1 2.926-3.627l-.005-.008A.171.171 0 0 1 4 3.2l-.665-1.324a.374.374 0 0 1 .165-.5L6.145.045a.363.363 0 0 1 .165-.04.367.367 0 0 1 .33.2l.623 1.245a10.614 10.614 0 0 1 3.424-.564 10.482 10.482 0 0 1 3.421.578l.628-1.258A.37.37 0 0 1 15.068 0a.362.362 0 0 1 .165.039l2.643 1.333a.373.373 0 0 1 .164.5L17.377 3.2a.316.316 0 0 1-.033.051 11.109 11.109 0 0 1 2.01 2.093L16.6 6.708a7.58 7.58 0 1 0 1.609 6.231l3.2-1.515V11.527a10.43 10.43 0 0 1-.847 4.131 10.752 10.752 0 0 1-9.872 6.511zm.166-8.652a.724.724 0 0 1-.488-.179L7.79 10.749l-.056-.066a.174.174 0 0 1-.034-.141.177.177 0 0 1 .094-.115l.379-.2a.887.887 0 0 1 .377-.077 1.194 1.194 0 0 1 .664.2l1.478 1.154c.262-.185 1.57-1.005 2.958-1.76.111-.06.239-.132.375-.208a12.935 12.935 0 0 1 2.917-1.33 1.914 1.914 0 0 1 .4-.043 2.123 2.123 0 0 1 1.281.492.688.688 0 0 1 .345.584c-.031.412-.592.77-.924.947-.425.228-1.436.747-1.854.926l-5.094 2.365h-.005a.664.664 0 0 1-.238.04zm2.171-2.6a.36.36 0 0 0 0 .719.36.36 0 0 0 0-.719zm1.314-.658a.361.361 0 0 0 0 .721.361.361 0 0 0 0-.721zm1.314-.659a.36.36 0 0 0 0 .72.36.36 0 0 0 0-.72z" class="cls-1" data-name="Exclusion 1" transform="translate(87.365)"/>
        </g>
    </g>
</svg>
