<svg xmlns="http://www.w3.org/2000/svg" width="12.857" height="14.293" viewBox="0 0 12.857 14.293">
    <defs>
        <style>
            .cls-1{fill:#ffc715}
        </style>
    </defs>
    <g id="share" transform="translate(-25.5)">
        <g id="share-alt" transform="translate(25.5)">
            <path id="Path_8282" d="M36.274 5.028a2.005 2.005 0 0 0-1.437.575l-5.1-2.945a1.222 1.222 0 0 0 .072-.5 2.155 2.155 0 1 0-4.31 0 2.116 2.116 0 0 0 2.156 2.152 2.005 2.005 0 0 0 1.437-.575l5.1 2.945a1.222 1.222 0 0 0-.072.5 1.222 1.222 0 0 0 .072.5l-5.1 3.017a2.005 2.005 0 0 0-1.437-.575 2.083 2.083 0 1 0 2.083 2.083 1.4 1.4 0 0 0-.072-.5l5.1-3.017a2.005 2.005 0 0 0 1.437.575 2.116 2.116 0 0 0 2.155-2.155 2 2 0 0 0-2.084-2.08z" class="cls-1" data-name="Path 8282" transform="translate(-25.5)"/>
        </g>
    </g>
</svg>
