<svg xmlns="http://www.w3.org/2000/svg" width="26.012" height="26.939" viewBox="0 0 26.012 26.939">
    <defs>
        <style>
            .cls-1{fill:#fafafa}
        </style>
    </defs>
    <g id="logo">
        <g id="logo-2" data-name="logo">
            <path id="Exclusion_1" d="M12.986 26.939a13.039 13.039 0 0 1-11.963-7.912 12.807 12.807 0 0 1 .3-10.693 13.159 13.159 0 0 1 3.559-4.407l-.006-.01a.208.208 0 0 1-.015-.024L4.053 2.28a.455.455 0 0 1 .2-.606L7.467.054a.441.441 0 0 1 .2-.048.446.446 0 0 1 .4.248l.757 1.512a12.9 12.9 0 0 1 4.162-.689 12.737 12.737 0 0 1 4.157.7L17.907.25a.45.45 0 0 1 .4-.25.44.44 0 0 1 .2.048l3.212 1.62a.454.454 0 0 1 .2.608l-.806 1.613a.384.384 0 0 1-.04.063 13.5 13.5 0 0 1 2.442 2.543l-3.35 1.658a9.211 9.211 0 1 0 1.956 7.571l3.885-1.841v.124a12.675 12.675 0 0 1-1.029 5.02 13.065 13.065 0 0 1-12 7.912zm.2-10.513a.88.88 0 0 1-.593-.217l-3.126-3.147-.068-.08a.211.211 0 0 1-.042-.171.215.215 0 0 1 .114-.14l.461-.243a1.078 1.078 0 0 1 .458-.094 1.451 1.451 0 0 1 .806.244l1.8 1.4c.319-.224 1.908-1.222 3.594-2.139l.456-.252a15.719 15.719 0 0 1 3.544-1.616 2.326 2.326 0 0 1 .481-.052 2.58 2.58 0 0 1 1.557.6.836.836 0 0 1 .419.709c-.038.5-.72.936-1.123 1.151-.516.277-1.745.907-2.253 1.125l-6.19 2.874h-.006a.807.807 0 0 1-.287.048zm2.638-3.162a.437.437 0 0 0 0 .874.437.437 0 0 0 0-.874zm1.6-.8a.438.438 0 0 0 0 .876.438.438 0 0 0 0-.876zm1.6-.8a.437.437 0 0 0 0 .874.437.437 0 0 0 0-.874z" class="cls-1" data-name="Exclusion 1"/>
        </g>
    </g>
</svg>
