<svg id="telegram" xmlns="http://www.w3.org/2000/svg" width="28.057" height="27.99" viewBox="0 0 28.057 27.99">
  <path id="Exclusion_4" data-name="Exclusion 4" d="M14.029,27.99A14,14,0,1,1,23.947,4.1a13.995,13.995,0,0,1-9.918,23.89Zm-.188-9.564h0L17.349,21a1.177,1.177,0,0,0,.564.178c.348,0,.591-.267.7-.771l2.3-10.823a1.1,1.1,0,0,0-.129-.937.625.625,0,0,0-.506-.227,1.013,1.013,0,0,0-.339.063L6.42,13.692c-.459.179-.718.411-.711.637.006.192.207.365.552.474l3.462,1.078,8.032-5.045a.707.707,0,0,1,.371-.13c.085,0,.146.028.164.075s-.015.122-.1.2l-6.5,5.858-.249,3.56a.886.886,0,0,0,.7-.341l1.694-1.628Z" transform="translate(0 0)" fill="#fff"/>
</svg>
