<svg xmlns="http://www.w3.org/2000/svg" width="60" height="60" viewBox="0 0 60 60">
  <g id="telegrampup" transform="translate(-0.296 -0.254)">
    <circle id="Ellipse_69" data-name="Ellipse 69" cx="30" cy="30" r="30" transform="translate(0.296 0.254)" fill="#00acf7"/>
    <path id="Path_14787" data-name="Path 14787" d="M6.391,18.431,35.1,7.36c1.333-.481,2.5.325,2.065,2.34l0,0L32.282,32.73c-.362,1.633-1.333,2.03-2.69,1.261L22.147,28.5l-3.591,3.459a1.878,1.878,0,0,1-1.5.732l.529-7.577,13.8-12.465c.6-.529-.134-.826-.926-.3L13.4,23.089,6.054,20.8c-1.6-.506-1.63-1.6.338-2.365Z" transform="translate(7.675 11.254)" fill="#fff"/>
  </g>
</svg>
