<svg id="whatsapp_pop" data-name="whatsapp pop" xmlns="http://www.w3.org/2000/svg" width="60" height="59.822" viewBox="0 0 60 59.822">
  <path id="Path_14788" data-name="Path 14788" d="M30.007,0h-.015A29.982,29.982,0,0,0,0,29.911,29.63,29.63,0,0,0,5.711,47.443L1.972,58.555,13.5,54.879A29.938,29.938,0,1,0,30.007,0Z" fill="#74b421"/>
  <path id="Path_14789" data-name="Path 14789" d="M142.229,145.646c-.725,2.038-3.6,3.728-5.9,4.221-1.571.333-3.622.6-10.529-2.251-8.834-3.642-14.523-12.574-14.967-13.153-.425-.58-3.57-4.73-3.57-9.022a9.529,9.529,0,0,1,3.074-7.28,4.381,4.381,0,0,1,3.074-1.073c.372,0,.706.019,1.007.034.883.037,1.326.09,1.909,1.477.725,1.739,2.491,6.031,2.7,6.472a1.773,1.773,0,0,1,.128,1.619,5.169,5.169,0,0,1-.973,1.372c-.443.508-.864.9-1.308,1.443-.406.475-.864.983-.353,1.862A26.57,26.57,0,0,0,121.4,137.4a22.125,22.125,0,0,0,7.049,4.326,1.908,1.908,0,0,0,2.119-.333,36.206,36.206,0,0,0,2.349-3.1,1.682,1.682,0,0,1,2.157-.651c.812.28,5.107,2.393,5.99,2.83s1.465.651,1.68,1.021A7.414,7.414,0,0,1,142.229,145.646Z" transform="translate(-94.731 -103.407)" fill="#fafafa"/>
</svg>
